<svg width="28" height="28" viewBox="0 0 28 28" fill="none" xmlns="http://www.w3.org/2000/svg">
<circle cx="14" cy="14" r="14" fill="#C11E73"/>
<path fill-rule="evenodd" clip-rule="evenodd" d="M13.9999 21.6443C18.2218 21.6443 21.6443 18.2218 21.6443 13.9999C21.6443 9.77799 18.2218 6.35547 13.9999 6.35547C9.77799 6.35547 6.35547 9.77799 6.35547 13.9999C6.35547 18.2218 9.77799 21.6443 13.9999 21.6443ZM13.9999 21.6443L13.7581 18.4671C13.5863 16.2084 11.7913 14.4135 9.53269 14.2416L6.35547 13.9999L9.53269 13.7581C11.7913 13.5863 13.5863 11.7913 13.7581 9.53269L13.9999 6.35547L14.2416 9.53269C14.4135 11.7913 16.2084 13.5863 18.4671 13.7581L21.6443 13.9999L18.4671 14.2416C16.2084 14.4135 14.4135 16.2084 14.2416 18.4671L13.9999 21.6443Z" fill="white"/>
</svg>
