<svg width="28" height="28" viewBox="0 0 28 28" fill="none" xmlns="http://www.w3.org/2000/svg">
<circle cx="14" cy="14" r="14" fill="#C11E73"/>
<path d="M18.0571 10.4662C18.0571 12.5441 16.2333 14.2344 13.9897 14.2344C11.7466 14.2344 9.92229 12.5441 9.92229 10.4662C9.92229 8.38752 11.7466 6.69678 13.9897 6.69678C16.2333 6.69678 18.0571 8.38752 18.0571 10.4662ZM15.6738 10.4661C15.6738 9.60555 14.9184 8.90575 13.9897 8.90575C13.0617 8.90575 12.3056 9.60555 12.3056 10.4661C12.3056 11.3261 13.0617 12.0263 13.9897 12.0263C14.9184 12.0263 15.6738 11.3261 15.6738 10.4661Z" fill="white"/>
<path d="M15.6457 17.3108C16.4736 17.1361 17.2721 16.8325 18.0076 16.4045C18.5642 16.0793 18.7318 15.3975 18.3812 14.8817C18.0307 14.3648 17.2955 14.2092 16.7379 14.5344C15.0719 15.5053 12.9268 15.5051 11.2617 14.5344C10.7042 14.2092 9.9687 14.3648 9.61898 14.8817C9.26829 15.398 9.43549 16.0793 9.99206 16.4045C10.7275 16.832 11.526 17.1361 12.3539 17.3108L10.0799 19.4181C9.61509 19.8493 9.61509 20.5484 10.0804 20.9796C10.3133 21.195 10.618 21.3028 10.9227 21.3028C11.2279 21.3028 11.5331 21.195 11.766 20.9796L13.9996 18.9089L16.2351 20.9796C16.7 21.4108 17.4542 21.4108 17.9195 20.9796C18.3853 20.5484 18.3853 19.8489 17.9195 19.4181L15.6457 17.3108Z" fill="white"/>
</svg>
