<svg width="28" height="28" viewBox="0 0 28 28" fill="none" xmlns="http://www.w3.org/2000/svg">
<circle cx="14" cy="14" r="14" fill="#C11E73"/>
<path fill-rule="evenodd" clip-rule="evenodd" d="M16.9633 20.8916C17.8797 21.2925 18.2233 20.4525 18.2233 20.4525L20.6478 8.27258C20.6287 7.45167 19.5215 7.94803 19.5215 7.94803L5.94793 13.2744C5.94793 13.2744 5.29885 13.5034 5.35612 13.9044C5.41339 14.3053 5.92884 14.4962 5.92884 14.4962L9.34609 15.6416C9.34609 15.6416 10.377 19.0207 10.587 19.6698C10.7779 20.2998 10.9497 20.3189 10.9497 20.3189C11.1406 20.3952 11.3124 20.2616 11.3124 20.2616L13.527 18.2571L16.9633 20.8916ZM17.5554 10.43C17.5554 10.43 18.0326 10.1436 18.0135 10.43C18.0135 10.43 18.0899 10.4682 17.8417 10.7355C17.6126 10.9645 12.2099 15.8136 11.4845 16.4627C11.4272 16.5009 11.389 16.5581 11.389 16.6345L11.179 18.429C11.1409 18.62 10.8927 18.639 10.8354 18.4672L9.93815 15.5272C9.89996 15.4127 9.93815 15.2791 10.0527 15.2027L17.5554 10.43Z" fill="white"/>
</svg>
