<svg width="28" height="28" viewBox="0 0 28 28" fill="none" xmlns="http://www.w3.org/2000/svg">
<circle cx="14" cy="14" r="14" fill="#C11E73"/>
<path fill-rule="evenodd" clip-rule="evenodd" d="M10.3091 14.2885C9.74209 14.7095 9.4412 15.1203 9.35259 15.8539C9.3489 16.3939 9.48704 17.1579 10.2454 17.6671C10.3338 17.7229 10.4206 17.7727 10.5057 17.8163C10.1614 17.3661 10.0867 16.8453 10.0894 16.4469C10.1777 15.7133 10.4792 15.3022 11.046 14.8815C11.8573 14.3109 12.8704 14.6335 12.8704 14.6335V12.1707C12.6267 12.1354 12.3802 12.1207 12.1338 12.127V14.0408C12.1338 14.0408 12.1337 14.0407 12.1333 14.0406V12.1271C11.5793 12.136 11.0321 12.246 10.5212 12.4514C10.0485 12.6264 9.60951 12.8755 9.22221 13.1886C8.78333 13.5515 8.41347 13.9846 8.1291 14.4687C8.02172 14.6462 7.61561 15.3548 7.56608 16.5092C7.53808 17.1635 7.74298 17.8391 7.84051 18.1204C7.84041 18.1211 7.84041 18.1218 7.84051 18.1224C7.90112 18.2843 8.14233 18.8517 8.53582 19.3314C8.65013 19.4709 8.77267 19.604 8.90286 19.7301L8.90629 19.7325C9.1333 19.9521 9.38107 20.1511 9.64641 20.3269C10.8792 21.128 12.2492 21.0738 12.2492 21.0738C12.2689 21.0729 12.2924 21.0722 12.3195 21.0714C12.6185 21.0623 13.3536 21.0399 14.1813 20.6663C15.1828 20.2145 15.7504 19.5437 15.7504 19.5437C15.7575 19.5353 15.7672 19.5242 15.7792 19.5104C15.9124 19.3583 16.328 18.8834 16.6054 18.1899C16.837 17.612 16.913 16.919 16.913 16.6415V11.6582C16.9463 11.6762 17.3573 11.9342 17.3573 11.9342C17.3573 11.9342 17.9523 12.296 18.8781 12.5319C19.5411 12.7006 20.437 12.7357 20.437 12.7357V10.3224C20.2675 10.3395 20.0062 10.3209 19.6998 10.2522V12.1433C19.6998 12.1433 18.8042 12.1082 18.1409 11.9395C17.2152 11.7039 16.6198 11.3418 16.6198 11.3418C16.6198 11.3418 16.2091 11.0838 16.1759 11.0655V16.0483C16.1759 16.1491 16.1658 16.3049 16.1418 16.4901C16.1656 16.3052 16.1756 16.1496 16.1756 16.0489V11.0649C16.2089 11.0832 16.6196 11.3412 16.6196 11.3412C16.6196 11.3412 17.2149 11.7031 18.1407 11.939C18.804 12.1076 19.6996 12.1427 19.6996 12.1427V10.2523C19.3998 10.1841 19.1092 10.0831 18.8335 9.95121C18.3003 9.69615 17.885 9.28067 17.8038 9.19663C17.5288 9.02367 17.2767 8.81952 17.0528 8.5886C16.4947 7.97704 16.2836 7.35957 16.2073 6.92582H14.3614V16.3205L14.3614 16.3333C14.3614 16.659 14.3614 16.9742 14.2469 17.2874C14.0623 17.7954 13.6642 18.2539 13.1353 18.4574C12.3422 18.7617 11.722 18.729 10.9817 18.2604C10.7984 18.1387 10.6372 17.9887 10.5049 17.8167C10.4197 17.7732 10.333 17.7235 10.2446 17.6674C9.4868 17.1579 9.34866 16.3939 9.35236 15.854C9.44096 15.1203 9.74185 14.7096 10.3089 14.2885C10.3414 14.2657 10.3742 14.2443 10.4073 14.2243C10.3743 14.2443 10.3415 14.2657 10.3091 14.2885ZM15.8646 17.6057C15.7288 17.9431 15.5605 18.2284 15.4086 18.4495C15.5608 18.2285 15.7292 17.9432 15.8646 17.6057ZM16.2094 6.92578C16.2857 7.35954 16.4968 7.977 17.0549 8.58857C17.2787 8.81949 17.5309 9.02364 17.8059 9.1966L17.7917 9.18156C16.7715 8.06311 16.9115 6.92578 16.9115 6.92578H16.2094Z" fill="white"/>
</svg>
