<svg width="28" height="28" viewBox="0 0 28 28" fill="none" xmlns="http://www.w3.org/2000/svg">
<circle cx="14" cy="14" r="14" fill="#C11E73"/>
<path fill-rule="evenodd" clip-rule="evenodd" d="M21.6329 9.67711C21.7442 9.28684 21.6329 9 21.1035 9H19.3531C18.908 9 18.703 9.24776 18.5917 9.52105C18.5917 9.52105 17.7015 11.8043 16.4404 13.2875C16.0325 13.7168 15.847 13.8533 15.6245 13.8533C15.5132 13.8533 15.3522 13.7168 15.3522 13.3266V9.67711C15.3522 9.20868 15.223 9 14.8521 9H12.1014C11.8234 9 11.6561 9.21737 11.6561 9.42342C11.6561 9.8675 12.2865 9.96987 12.3515 11.2188V13.9316C12.3515 14.5263 12.2495 14.6342 12.0269 14.6342C11.4335 14.6342 9.99018 12.3405 9.13398 9.71618C8.96619 9.20605 8.7979 9 8.35055 9H6.60014C6.10002 9 6 9.24776 6 9.52105C6 10.0089 6.59351 12.4289 8.76314 15.6295C10.2097 17.815 12.2475 19 14.1019 19C15.2147 19 15.3522 18.7368 15.3522 18.2836V16.6316C15.3522 16.1053 15.4576 16.0003 15.8098 16.0003C16.0696 16.0003 16.5146 16.1368 17.5532 17.1907C18.74 18.4395 18.9355 19 19.6032 19H21.3536C21.8537 19 22.1038 18.7368 21.9595 18.2175C21.8017 17.6999 21.2351 16.9491 20.4831 16.0588C20.0752 15.5513 19.4631 15.0049 19.2778 14.7317C19.0182 14.3804 19.0923 14.2243 19.2778 13.9122C19.2778 13.9122 21.4103 10.7507 21.6329 9.67724V9.67711Z" fill="white"/>
</svg>
