<svg width="28" height="28" viewBox="0 0 28 28" fill="none" xmlns="http://www.w3.org/2000/svg">
<circle cx="14" cy="14" r="14" fill="#C11E73"/>
<path fill-rule="evenodd" clip-rule="evenodd" d="M8.45589 8.65962C7.364 8.71372 6.48691 9.56868 6.41605 10.6596C6.34816 11.7048 6.28125 12.9909 6.28125 14C6.28125 15.009 6.34816 16.2951 6.41605 17.3403C6.48691 18.4312 7.364 19.2862 8.45589 19.3403C10.037 19.4186 12.2969 19.5131 13.9996 19.5131C15.7024 19.5131 17.9623 19.4186 19.5434 19.3403C20.6353 19.2862 21.5124 18.4312 21.5832 17.3403C21.6511 16.2951 21.718 15.009 21.718 14C21.718 12.9909 21.6511 11.7048 21.5832 10.6596C21.5124 9.56868 20.6353 8.71372 19.5434 8.65962C17.9623 8.58129 15.7024 8.48682 13.9996 8.48682C12.2969 8.48682 10.037 8.58129 8.45589 8.65962ZM12.3457 16.2052V11.7947L16.7562 13.9999L12.3457 16.2052Z" fill="white"/>
</svg>
