<svg width="24" height="24" viewBox="0 0 24 24" fill="none" xmlns="http://www.w3.org/2000/svg">
<path d="M7.30279 20.8091C7.78181 20.8091 8.17116 21.1984 8.17116 21.6775C8.17116 22.1565 7.78181 22.5447 7.30279 22.5447C6.82376 22.5447 6.43555 22.1565 6.43555 21.6775C6.43555 21.1984 6.82376 20.8091 7.30279 20.8091ZM20.0757 20.8091C20.5547 20.8091 20.944 21.1984 20.944 21.6775C20.944 22.1565 20.5547 22.5447 20.0757 22.5447C19.5967 22.5447 19.2073 22.1565 19.2073 21.6775C19.2073 21.1984 19.5967 20.8091 20.0757 20.8091Z" stroke="white" stroke-width="2" stroke-linecap="round" stroke-linejoin="round"/>
<path d="M2 2L4.36107 2.40865L5.4542 15.432C5.54274 16.4933 6.42927 17.3083 7.49402 17.3083H19.8806C20.8976 17.3083 21.7603 16.5614 21.9068 15.5534L22.984 8.10926C23.1168 7.19094 22.4051 6.36911 21.4777 6.36911H4.7402M14.9127 10.5645H18.0604" stroke="white" stroke-width="2" stroke-linecap="round" stroke-linejoin="round"/>
</svg>
