<svg width="60" height="47" viewBox="0 0 60 47" fill="none" xmlns="http://www.w3.org/2000/svg">
<path d="M1.39268 12.9754C0.940357 12.9754 0.595163 12.8497 0.357098 12.5985C0.119033 12.3472 0 11.9943 0 11.5396V1.43572C0 0.981078 0.119033 0.628129 0.357098 0.376878C0.595163 0.125626 0.940357 0 1.39268 0C1.8331 0 2.17234 0.125626 2.41041 0.376878C2.64847 0.628129 2.76751 0.981078 2.76751 1.43572V5.24039H8.6239V1.43572C8.6239 0.981078 8.74294 0.628129 8.981 0.376878C9.21906 0.125626 9.55831 0 9.99873 0C10.4511 0 10.7962 0.125626 11.0343 0.376878C11.2724 0.628129 11.3914 0.981078 11.3914 1.43572V11.5396C11.3914 11.9943 11.2724 12.3472 11.0343 12.5985C10.7962 12.8497 10.4511 12.9754 9.99873 12.9754C9.55831 12.9754 9.21906 12.8497 8.981 12.5985C8.74294 12.3472 8.6239 11.9943 8.6239 11.5396V7.55549H2.76751V11.5396C2.76751 11.9943 2.64847 12.3472 2.41041 12.5985C2.18425 12.8497 1.845 12.9754 1.39268 12.9754Z" fill="black"/>
<path d="M14.1102 12.9754C13.7769 12.9754 13.5032 12.8976 13.2889 12.742C13.0866 12.5865 12.9556 12.3771 12.8961 12.1139C12.8485 11.8507 12.9021 11.5576 13.0568 11.2345L17.6276 1.16652C17.8181 0.759737 18.0443 0.466611 18.3061 0.287145C18.568 0.0957151 18.8715 0 19.2167 0C19.5619 0 19.8654 0.0957151 20.1273 0.287145C20.3892 0.466611 20.6094 0.759737 20.788 1.16652L25.3945 11.2345C25.5492 11.5576 25.6028 11.8567 25.5552 12.1319C25.5195 12.3951 25.4005 12.6045 25.1981 12.76C24.9957 12.9036 24.7339 12.9754 24.4125 12.9754C24.0078 12.9754 23.6923 12.8796 23.4662 12.6882C23.2519 12.4968 23.0615 12.1977 22.8948 11.7909L21.8235 9.29631L22.9305 10.068H15.4851L16.5921 9.29631L15.5386 11.7909C15.3601 12.2096 15.1696 12.5147 14.9673 12.7062C14.7768 12.8856 14.4911 12.9754 14.1102 12.9754ZM19.181 3.1227L16.8956 8.59639L16.4135 7.89648H22.0021L21.52 8.59639L19.2167 3.1227H19.181Z" fill="black"/>
<path d="M28.4107 12.9754C27.9584 12.9754 27.6132 12.8497 27.3751 12.5985C27.1371 12.3472 27.018 11.9943 27.018 11.5396V1.5793C27.018 1.11269 27.1371 0.759737 27.3751 0.52045C27.6251 0.281163 27.9763 0.161519 28.4286 0.161519H32.7673C34.1719 0.161519 35.2551 0.52045 36.0169 1.23831C36.7787 1.94421 37.1596 2.93127 37.1596 4.19949C37.1596 5.46771 36.7787 6.46076 36.0169 7.17862C35.2551 7.89648 34.1719 8.25541 32.7673 8.25541H29.7856V11.5396C29.7856 11.9943 29.6665 12.3472 29.4285 12.5985C29.2023 12.8497 28.863 12.9754 28.4107 12.9754ZM29.7856 6.10182H32.3031C33.0173 6.10182 33.5589 5.94031 33.9279 5.61727C34.3088 5.29423 34.4992 4.82164 34.4992 4.19949C34.4992 3.57734 34.3088 3.11073 33.9279 2.79966C33.5589 2.48859 33.0173 2.33305 32.3031 2.33305H29.7856V6.10182Z" fill="black"/>
<path d="M40.0889 12.9754C39.6366 12.9754 39.2914 12.8497 39.0533 12.5985C38.8153 12.3472 38.6962 11.9943 38.6962 11.5396V1.5793C38.6962 1.11269 38.8153 0.759737 39.0533 0.52045C39.3033 0.281163 39.6545 0.161519 40.1068 0.161519H44.4455C45.8501 0.161519 46.9333 0.52045 47.6951 1.23831C48.4569 1.94421 48.8378 2.93127 48.8378 4.19949C48.8378 5.46771 48.4569 6.46076 47.6951 7.17862C46.9333 7.89648 45.8501 8.25541 44.4455 8.25541H41.4637V11.5396C41.4637 11.9943 41.3447 12.3472 41.1067 12.5985C40.8805 12.8497 40.5412 12.9754 40.0889 12.9754ZM41.4637 6.10182H43.9813C44.6955 6.10182 45.2371 5.94031 45.6061 5.61727C45.987 5.29423 46.1774 4.82164 46.1774 4.19949C46.1774 3.57734 45.987 3.11073 45.6061 2.79966C45.2371 2.48859 44.6955 2.33305 43.9813 2.33305H41.4637V6.10182Z" fill="black"/>
<path d="M54.714 12.9754C54.2617 12.9754 53.9165 12.8497 53.6784 12.5985C53.4404 12.3472 53.3213 11.9883 53.3213 11.5217V6.31718L53.8927 7.91443L49.6789 1.90233C49.5123 1.65108 49.4409 1.38188 49.4647 1.09474C49.4885 0.79563 49.6075 0.538396 49.8218 0.323038C50.036 0.107679 50.3396 0 50.7324 0C51.0181 0 51.274 0.071786 51.5001 0.215359C51.7382 0.35893 51.9644 0.586254 52.1786 0.897327L55.0354 5.04298H54.4641L57.3208 0.897327C57.547 0.574289 57.7672 0.346966 57.9815 0.215359C58.2076 0.071786 58.4695 0 58.7671 0C59.148 0 59.4456 0.101697 59.6598 0.305091C59.8741 0.496521 59.9872 0.74179 59.9991 1.0409C60.011 1.32804 59.9098 1.62715 59.6955 1.93823L55.5353 7.91443L56.0888 6.31718V11.5217C56.0888 12.4908 55.6306 12.9754 54.714 12.9754Z" fill="black"/>
<path d="M0.684856 24.8552C0.539372 24.8552 0.419347 24.8187 0.324782 24.7456C0.230218 24.6651 0.175661 24.5664 0.161113 24.4494C0.146564 24.3252 0.186573 24.2009 0.281137 24.0766L2.85621 20.5999V21.0605L0.422984 17.7703C0.32842 17.6387 0.284774 17.5108 0.292049 17.3865C0.306597 17.2622 0.361153 17.1635 0.455718 17.0904C0.550283 17.0099 0.66667 16.9697 0.80488 16.9697C0.921267 16.9697 1.02311 16.999 1.1104 17.0575C1.20496 17.1086 1.29953 17.2 1.39409 17.3316L3.51088 20.249H3.16172L5.25669 17.3316C5.35126 17.2 5.44219 17.1086 5.52948 17.0575C5.62404 16.999 5.73315 16.9697 5.85682 16.9697C6.0023 16.9697 6.12232 17.0099 6.21689 17.0904C6.31145 17.1635 6.36237 17.2622 6.36965 17.3865C6.3842 17.5035 6.34055 17.6314 6.23871 17.7703L3.80549 21.0605V20.5999L6.36965 24.0766C6.46421 24.2009 6.50422 24.3252 6.48967 24.4494C6.4824 24.5664 6.43148 24.6651 6.33691 24.7456C6.24235 24.8187 6.11869 24.8552 5.96593 24.8552C5.85682 24.8552 5.75498 24.826 5.66041 24.7675C5.56585 24.709 5.46765 24.6176 5.36581 24.4933L3.11808 21.4005H3.53271L1.29589 24.4933C1.20132 24.6176 1.10312 24.709 1.00128 24.7675C0.906719 24.826 0.801243 24.8552 0.684856 24.8552Z" fill="#C11E73"/>
<path d="M7.88803 24.7785C7.69162 24.7785 7.53886 24.7273 7.42975 24.6249C7.32791 24.5153 7.27699 24.3617 7.27699 24.1643V17.6607C7.27699 17.4633 7.32791 17.3134 7.42975 17.211C7.53886 17.1013 7.69162 17.0465 7.88803 17.0465H11.8707C12.0234 17.0465 12.1398 17.0867 12.2198 17.1671C12.2998 17.2403 12.3398 17.3499 12.3398 17.4962C12.3398 17.6497 12.2998 17.7667 12.2198 17.8471C12.1398 17.9275 12.0234 17.9678 11.8707 17.9678H8.36812V20.3915H11.6306C11.7906 20.3915 11.907 20.4317 11.9798 20.5122C12.0598 20.5926 12.0998 20.7059 12.0998 20.8522C12.0998 21.0057 12.0598 21.1227 11.9798 21.2031C11.907 21.2762 11.7906 21.3128 11.6306 21.3128H8.36812V23.8572H11.8707C12.0234 23.8572 12.1398 23.8974 12.2198 23.9779C12.2998 24.0583 12.3398 24.1716 12.3398 24.3178C12.3398 24.4714 12.2998 24.5884 12.2198 24.6688C12.1398 24.7419 12.0234 24.7785 11.8707 24.7785H7.88803Z" fill="#C11E73"/>
<path d="M13.7241 24.8552C13.5423 24.8552 13.4004 24.8041 13.2986 24.7017C13.204 24.5993 13.1567 24.4568 13.1567 24.274V17.6607C13.1567 17.4633 13.2077 17.3134 13.3095 17.211C13.4186 17.1013 13.5714 17.0465 13.7678 17.0465H19.0598C19.2562 17.0465 19.4053 17.1013 19.5071 17.211C19.609 17.3134 19.6599 17.4633 19.6599 17.6607V24.274C19.6599 24.4568 19.6126 24.5993 19.518 24.7017C19.4235 24.8041 19.2853 24.8552 19.1034 24.8552C18.9215 24.8552 18.7797 24.8041 18.6779 24.7017C18.5833 24.5993 18.536 24.4568 18.536 24.274V18.0007H14.2915V24.274C14.2915 24.4568 14.2442 24.5993 14.1497 24.7017C14.0551 24.8041 13.9133 24.8552 13.7241 24.8552Z" fill="#C11E73"/>
<path d="M21.3813 24.8552C21.3086 24.8552 21.2395 24.8443 21.174 24.8223C21.1158 24.8004 21.0649 24.7638 21.0212 24.7127C20.9849 24.6615 20.9558 24.603 20.9339 24.5372C20.9121 24.4641 20.9012 24.38 20.9012 24.2849V17.5071C20.9012 17.339 20.9485 17.2074 21.0431 17.1123C21.1376 17.0173 21.2686 16.9697 21.4359 16.9697C21.6032 16.9697 21.7305 17.0173 21.8178 17.1123C21.9051 17.2074 21.9487 17.339 21.9487 17.5071V23.254H21.7086L26.1714 17.2987C26.2659 17.1744 26.3532 17.0904 26.4332 17.0465C26.5205 16.9953 26.6296 16.9697 26.7606 16.9697C26.8551 16.9697 26.9352 16.9917 27.0006 17.0355C27.0661 17.0721 27.117 17.1306 27.1534 17.211C27.197 17.2914 27.2189 17.3865 27.2189 17.4962V24.3069C27.2189 24.4823 27.1752 24.6176 27.0879 24.7127C27.0006 24.8077 26.8697 24.8552 26.6951 24.8552C26.5278 24.8552 26.3969 24.8077 26.3023 24.7127C26.215 24.6176 26.1714 24.4823 26.1714 24.3069V18.571H26.4114L21.9487 24.5153C21.8541 24.6395 21.7705 24.7273 21.6977 24.7785C21.625 24.8296 21.5195 24.8552 21.3813 24.8552Z" fill="#C11E73"/>
<path d="M29.0319 24.8552C28.8501 24.8552 28.7082 24.8041 28.6064 24.7017C28.5118 24.5993 28.4645 24.4568 28.4645 24.274V17.54C28.4645 17.3499 28.5118 17.2074 28.6064 17.1123C28.7082 17.0173 28.8501 16.9697 29.0319 16.9697C29.2138 16.9697 29.352 17.0173 29.4466 17.1123C29.5484 17.2074 29.5993 17.3499 29.5993 17.54V20.4135H30.9741L30.7123 20.5999L32.8618 17.2658C32.9418 17.1415 33.0364 17.0575 33.1455 17.0136C33.2546 16.9697 33.3637 16.9624 33.4728 16.9917C33.5819 17.0136 33.6729 17.0648 33.7456 17.1452C33.8256 17.2183 33.8693 17.3097 33.8765 17.4194C33.8838 17.5291 33.8475 17.6497 33.7674 17.7813L31.7707 20.7973L31.3451 20.4573C31.7961 20.5158 32.1817 20.6803 32.5017 20.9509C32.8218 21.2214 33.0982 21.5906 33.331 22.0586L34.3021 24.0656C34.3821 24.2045 34.4076 24.3325 34.3785 24.4494C34.3494 24.5664 34.2875 24.6615 34.193 24.7346C34.1057 24.8004 34.0038 24.837 33.8875 24.8443C33.7783 24.8589 33.6692 24.837 33.5601 24.7785C33.451 24.7273 33.3637 24.6322 33.2983 24.4933L32.3817 22.5302C32.1853 22.1134 31.9562 21.8173 31.6943 21.6418C31.4324 21.459 31.1087 21.3676 30.7232 21.3676H29.5993V24.274C29.5993 24.4568 29.552 24.5993 29.4575 24.7017C29.3629 24.8041 29.2211 24.8552 29.0319 24.8552Z" fill="#C11E73"/>
<path d="M40.8625 24.8552C40.6807 24.8552 40.5388 24.8041 40.437 24.7017C40.3424 24.5993 40.2951 24.4568 40.2951 24.274V18.0007H37.2181V19.6677C37.2181 20.3769 37.1745 21.002 37.0872 21.5431C36.9999 22.0842 36.8726 22.5594 36.7053 22.9689C36.5453 23.371 36.3416 23.7183 36.0943 24.0108C35.8542 24.3032 35.5742 24.5555 35.2541 24.7675C35.1232 24.8626 34.9886 24.8955 34.8504 24.8662C34.7194 24.837 34.6031 24.7565 34.5012 24.6249C34.4139 24.486 34.3848 24.3507 34.4139 24.2191C34.4503 24.0875 34.5412 23.9742 34.6867 23.8791C34.9268 23.7256 35.1377 23.5318 35.3196 23.2979C35.5087 23.0639 35.6651 22.7751 35.7888 22.4315C35.9124 22.0805 36.007 21.6564 36.0724 21.1592C36.1379 20.6621 36.1707 20.0698 36.1707 19.3825V17.6607C36.1707 17.4633 36.2216 17.3134 36.3234 17.211C36.4325 17.1013 36.5853 17.0465 36.7817 17.0465H40.8189C41.0153 17.0465 41.1644 17.1013 41.2662 17.211C41.3681 17.3134 41.419 17.4633 41.419 17.6607V24.274C41.419 24.4568 41.3717 24.5993 41.2771 24.7017C41.1826 24.8041 41.0444 24.8552 40.8625 24.8552Z" fill="#C11E73"/>
<path d="M43.1549 24.8552C43.0822 24.8552 43.0131 24.8443 42.9476 24.8223C42.8894 24.8004 42.8385 24.7638 42.7948 24.7127C42.7585 24.6615 42.7294 24.603 42.7076 24.5372C42.6857 24.4641 42.6748 24.38 42.6748 24.2849V17.5071C42.6748 17.339 42.7221 17.2074 42.8167 17.1123C42.9112 17.0173 43.0422 16.9697 43.2095 16.9697C43.3768 16.9697 43.5041 17.0173 43.5914 17.1123C43.6787 17.2074 43.7223 17.339 43.7223 17.5071V23.254H43.4823L47.945 17.2987C48.0395 17.1744 48.1268 17.0904 48.2068 17.0465C48.2941 16.9953 48.4033 16.9697 48.5342 16.9697C48.6288 16.9697 48.7088 16.9917 48.7742 17.0355C48.8397 17.0721 48.8906 17.1306 48.927 17.211C48.9706 17.2914 48.9925 17.3865 48.9925 17.4962V24.3069C48.9925 24.4823 48.9488 24.6176 48.8615 24.7127C48.7742 24.8077 48.6433 24.8552 48.4687 24.8552C48.3014 24.8552 48.1705 24.8077 48.0759 24.7127C47.9886 24.6176 47.945 24.4823 47.945 24.3069V18.571H48.185L43.7223 24.5153C43.6277 24.6395 43.5441 24.7273 43.4713 24.7785C43.3986 24.8296 43.2931 24.8552 43.1549 24.8552Z" fill="#C11E73"/>
<path d="M50.7837 24.8552C50.6164 24.8552 50.4855 24.8077 50.3909 24.7127C50.3036 24.6176 50.26 24.486 50.26 24.3178V17.5071C50.26 17.3316 50.3073 17.2 50.4018 17.1123C50.4964 17.0173 50.6237 16.9697 50.7837 16.9697C50.9365 16.9697 51.0529 16.999 51.1329 17.0575C51.2202 17.1086 51.3002 17.2037 51.3729 17.3426L54.2317 22.7056H53.8934L56.7413 17.3426C56.814 17.2037 56.8904 17.1086 56.9704 17.0575C57.0504 16.999 57.1668 16.9697 57.3196 16.9697C57.4796 16.9697 57.6033 17.0173 57.6906 17.1123C57.7779 17.2 57.8215 17.3316 57.8215 17.5071V24.3178C57.8215 24.486 57.7779 24.6176 57.6906 24.7127C57.6106 24.8077 57.4869 24.8552 57.3196 24.8552C57.1523 24.8552 57.025 24.8077 56.9377 24.7127C56.8504 24.6176 56.8068 24.486 56.8068 24.3178V18.6587H57.0468L54.5154 23.3637C54.4572 23.4734 54.3954 23.5538 54.3299 23.605C54.2644 23.6561 54.1735 23.6817 54.0571 23.6817C53.9407 23.6817 53.8461 23.6561 53.7734 23.605C53.7007 23.5465 53.6352 23.466 53.577 23.3637L51.0238 18.6477H51.2856V24.3178C51.2856 24.486 51.242 24.6176 51.1547 24.7127C51.0747 24.8077 50.951 24.8552 50.7837 24.8552Z" fill="#C11E73"/>
<path d="M9.45764 47.0001C7.48387 47.0001 5.79577 46.6086 4.39335 45.8254C2.99094 45.0423 1.90882 43.9459 1.14701 42.5363C0.40252 41.1093 0.0302734 39.4299 0.0302734 37.4982C0.0302734 36.0538 0.238039 34.7573 0.653571 33.6087C1.08642 32.4427 1.70971 31.4508 2.52346 30.6329C3.33721 29.7975 4.3241 29.1536 5.48413 28.7012C6.66146 28.2487 7.98597 28.0225 9.45764 28.0225C10.3233 28.0225 11.1977 28.1356 12.0807 28.3618C12.981 28.5706 13.7601 28.8752 14.4181 29.2755C14.8509 29.5191 15.1452 29.8236 15.3011 30.1891C15.4569 30.5546 15.5002 30.92 15.4309 31.2855C15.379 31.6509 15.2318 31.9642 14.9894 32.2252C14.7643 32.4863 14.4787 32.6516 14.1324 32.7212C13.7861 32.7908 13.3965 32.7125 12.9637 32.4863C12.4443 32.173 11.8989 31.9468 11.3275 31.8075C10.7562 31.6683 10.1762 31.5987 9.5875 31.5987C8.42747 31.5987 7.44924 31.8337 6.65281 32.3035C5.87368 32.756 5.28502 33.4173 4.8868 34.2874C4.48858 35.1576 4.28947 36.2278 4.28947 37.4982C4.28947 38.7512 4.48858 39.8215 4.8868 40.709C5.28502 41.5966 5.87368 42.2753 6.65281 42.7452C7.44924 43.1976 8.42747 43.4239 9.5875 43.4239C10.1415 43.4239 10.7042 43.3542 11.2756 43.215C11.8643 43.0758 12.427 42.8583 12.9637 42.5624C13.4139 42.3362 13.8121 42.2579 14.1583 42.3275C14.5219 42.3797 14.8163 42.5363 15.0413 42.7974C15.2837 43.041 15.4309 43.3368 15.4829 43.6849C15.5521 44.033 15.5175 44.381 15.379 44.7291C15.2405 45.0771 14.9808 45.373 14.5998 45.6166C13.9592 46.0517 13.1715 46.391 12.2365 46.6347C11.3016 46.8783 10.3753 47.0001 9.45764 47.0001Z" fill="black"/>
<path d="M19.6016 46.713C18.9437 46.713 18.433 46.5302 18.0694 46.1648C17.7231 45.7993 17.55 45.2946 17.55 44.6507V30.3196C17.55 29.6409 17.7231 29.1275 18.0694 28.7795C18.4156 28.4314 18.9177 28.2574 19.5757 28.2574C20.2163 28.2574 20.7097 28.4314 21.056 28.7795C21.4023 29.1275 21.5754 29.6409 21.5754 30.3196V43.2933H28.5356C29.0896 43.2933 29.5138 43.4413 29.8081 43.7371C30.1198 44.033 30.2756 44.4506 30.2756 44.9901C30.2756 45.547 30.1198 45.9734 29.8081 46.2692C29.5138 46.565 29.0896 46.713 28.5356 46.713H19.6016Z" fill="black"/>
<path d="M33.6841 46.9479C33.0261 46.9479 32.524 46.7652 32.1778 46.3997C31.8315 46.0343 31.6583 45.5209 31.6583 44.8596V30.163C31.6583 29.5017 31.8315 28.9883 32.1778 28.6229C32.524 28.2574 33.0261 28.0747 33.6841 28.0747C34.3247 28.0747 34.8181 28.2574 35.1644 28.6229C35.5107 28.9883 35.6838 29.5017 35.6838 30.163V44.8596C35.6838 45.5209 35.5107 46.0343 35.1644 46.3997C34.8354 46.7652 34.342 46.9479 33.6841 46.9479Z" fill="black"/>
<path d="M40.4592 46.9479C39.8705 46.9479 39.4203 46.7826 39.1087 46.4519C38.797 46.1213 38.6412 45.6601 38.6412 45.0684V29.9542C38.6412 29.3625 38.8057 28.9013 39.1347 28.5706C39.4809 28.24 39.9484 28.0747 40.5371 28.0747C41.0565 28.0747 41.4634 28.1791 41.7577 28.3879C42.0694 28.5793 42.355 28.9187 42.6147 29.406L48.614 40.4219H47.731L53.7302 29.406C53.9899 28.9187 54.2669 28.5793 54.5613 28.3879C54.8729 28.1791 55.2798 28.0747 55.7819 28.0747C56.3706 28.0747 56.8207 28.24 57.1324 28.5706C57.4613 28.9013 57.6258 29.3625 57.6258 29.9542V45.0684C57.6258 45.6601 57.47 46.1213 57.1583 46.4519C56.8467 46.7826 56.3965 46.9479 55.8079 46.9479C55.2192 46.9479 54.7604 46.7826 54.4314 46.4519C54.1198 46.1213 53.964 45.6601 53.964 45.0684V34.4963H54.5353L49.7048 43.1889C49.497 43.5196 49.2719 43.7719 49.0295 43.9459C48.8044 44.1026 48.5014 44.1809 48.1205 44.1809C47.7396 44.1809 47.428 44.0939 47.1856 43.9198C46.9432 43.7458 46.7268 43.5022 46.5363 43.1889L41.6538 34.4702H42.2771V45.0684C42.2771 45.6601 42.1213 46.1213 41.8097 46.4519C41.5153 46.7826 41.0652 46.9479 40.4592 46.9479Z" fill="black"/>
</svg>
